#!OML:ASF F:\VICON\USERDATA\INSTALL\rory3\rory3.ASF
:FULLY-SPECIFIED
:DEGREES
694
root 0.625705 17.4946 1.12895 7.74568 -78.1457 -6.06528
lowerback 4.09294 -1.35758 -5.14895
upperback -2.59958 -2.13024 0.386089
thorax -4.79813 -0.883669 3.46083
lowerneck -15.1091 -4.65067 -9.87423
upperneck -24.5832 -4.71603 13.9069
head -4.34875 -2.70243 6.17141
rclavicle -2.59662e-014 -1.19271e-015
rhumerus -26.9 0.409281 -71.288
rradius 88.8048
rwrist -2.05315
rhand -39.4864 6.36785
rfingers 7.12502
rthumb -12.4727 -23.24
lclavicle -2.59662e-014 -1.19271e-015
lhumerus -36.8198 -16.6763 80.7853
lradius 85.1675
lwrist -4.62652
lhand -28.0472 17.5457
lfingers 7.12502
lthumb -1.4315 47.5206
rfemur -5.34295 6.92391 6.8168
rtibia 29.4023
rfoot -15.93 -2.86447
rtoes -3.95733
lfemur -9.87864 -5.24003 -5.29801
ltibia 21.6502
lfoot -6.0239 10.777
ltoes -33.8554
695
root 0.619321 17.4787 0.990736 13.5389 -78.001 -12.3116
lowerback 4.26069 -1.32806 -4.16127
upperback -2.51036 -2.0155 0.751574
thorax -4.82647 -0.85276 3.28172
lowerneck -14.9783 -4.69035 -9.94371
upperneck -24.5702 -4.7608 13.9373
head -4.35445 -2.7204 6.1936
rclavicle -3.04265e-014 -1.74931e-014
rhumerus -25.006 0.464323 -70.3722
rradius 90.2215
rwrist -2.31464
rhand -39.8424 6.09459
rfingers 7.12502
rthumb -12.8159 -23.492
lclavicle -3.04265e-014 -1.74931e-014
lhumerus -36.5142 -16.7758 80.4623
lradius 85.6045
lwrist -4.2926
lhand -28.0669 17.4243
lfingers 7.12502
lthumb -1.45054 47.3991
rfemur -4.82261 6.87843 8.85414
rtibia 29.074
rfoot -16.6538 -2.72927
rtoes -4.02242
lfemur -9.50175 -4.87218 -3.36786
ltibia 21.4642
lfoot -5.6807 10.5099
ltoes -34.5564
696
root 0.625087 17.4615 0.869974 14.3767 -78.1051 -13.3081
lowerback 4.25859 -1.28618 -4.07506
upperback -2.4882 -1.95214 0.775899
thorax -4.80913 -0.824444 3.25314
lowerneck -14.7554 -4.66085 -10.0181
upperneck -24.5908 -4.71974 13.9406
head -4.39562 -2.69737 6.21489
rclavicle 1.67725e-015 5.96354e-015
rhumerus -22.9678 0.570029 -69.3452
rradius 91.5294
rwrist -2.70273
rhand -39.9597 6.19044
rfingers 7.12502
rthumb -12.929 -23.389
lclavicle 1.67725e-015 5.96354e-015
lhumerus -36.2783 -16.8093 80.123
lradius 86.048
lwrist -3.73027
lhand -27.9268 17.4522
lfingers 7.12502
lthumb -1.31525 47.4279
rfemur -4.62963 6.48899 9.46547
rtibia 28.821
rfoot -17.2272 -2.2369
rtoes -2.71766
lfemur -9.26645 -5.1872 -2.75422
ltibia 21.2404
lfoot -5.29343 10.9348
ltoes -34.5188
697
root 0.641025 17.4509 0.761069 9.91784 -78.6134 -8.55844
lowerback 4.10869 -1.19193 -5.03568
upperback -2.59689 -1.90057 0.425979
thorax -4.82814 -0.771802 3.42206
lowerneck -14.5398 -4.61437 -10.0129
upperneck -24.6856 -4.67209 13.9092
head -4.46428 -2.67907 6.21481
rclavicle -5.01931e-015 -9.14409e-015
rhumerus -20.838 0.737289 -68.2521
rradius 92.7583
rwrist -3.00559
rhand -40.1557 6.12577
rfingers 7.12502
rthumb -13.1179 -23.4416
lclavicle -5.01931e-015 -9.14409e-015
lhumerus -36.3259 -15.6135 79.9031
lradius 86.916
lwrist -3.69404
lhand -27.4816 16.7888
lfingers 7.12502
lthumb -0.885253 46.7668
rfemur -4.95005 5.97802 8.58632
rtibia 28.6292
rfoot -17.7582 -1.61279
rtoes -0.606005
lfemur -9.31506 -6.15399 -3.55138
ltibia 21.0268
lfoot -4.79885 12.2094
ltoes -34.299
698
root 0.648548 17.443 0.629037 14.8156 -78.4739 -13.6864
lowerback 4.36784 -1.17298 -4.15303
upperback -2.60363 -1.81811 0.689494
thorax -5.00453 -0.750381 3.2022
lowerneck -14.4564 -4.62747 -9.95633
upperneck -24.78 -4.71955 13.7792
head -4.50982 -2.70473 6.16695
rclavicle -1.11319e-014 4.37326e-015
rhumerus -18.7228 0.726295 -67.1396
rradius 94.0352
rwrist -3.29203
rhand -40.3246 6.06695
rfingers 7.12502
rthumb -13.2807 -23.4899
lclavicle -1.11319e-014 4.37326e-015
lhumerus -36.1305 -15.7968 79.5864
lradius 87.5631
lwrist -2.92908
lhand -27.7481 17.0361
lfingers 7.12502
lthumb -1.14266 47.0128
rfemur -4.80352 5.67206 10.2802
rtibia 28.3829
rfoot -18.5396 -1.60097
rtoes 1.15007
lfemur -9.18562 -6.62002 -1.92359
ltibia 20.8869
lfoot -4.39131 12.7253
ltoes -34.3125
